STARTFONT 2.1
COMMENT Based upon Codec Terminal Text by Chris Cannam.
COMMENT 
FONT -chris2-sq-Medium-R-Normal--15-140-75-75-C-100-ISO8859-1
SIZE 14 75 75
FONTBOUNDINGBOX 7 13 0 -3
STARTPROPERTIES 18
POINT_SIZE 140
PIXEL_SIZE 15
RESOLUTION_X 75
RESOLUTION_Y 75
FONT_ASCENT 12
FONT_DESCENT 3
AVERAGE_WIDTH 100
SPACING "C"
_GBDFED_INFO "Edited with gbdfed 1.6."
CHARSET_ENCODING "1"
CHARSET_REGISTRY "ISO8859"
DEFAULT_CHAR 0
FAMILY_NAME "sq"
FOUNDRY "chris2"
SETWIDTH_NAME "Normal"
SLANT "R"
WEIGHT_NAME "Medium"
COPYRIGHT "Public domain"
ENDPROPERTIES
CHARS 192
STARTCHAR char0
ENCODING 0
SWIDTH 480 0
DWIDTH 7 0
BBX 7 13 0 -3
BITMAP
00
54
00
44
00
44
00
44
00
54
00
00
00
ENDCHAR
STARTCHAR char32
ENCODING 32
SWIDTH 480 0
DWIDTH 7 0
BBX 7 13 0 -3
BITMAP
00
00
00
00
00
00
00
00
00
00
00
00
00
ENDCHAR
STARTCHAR char33
ENCODING 33
SWIDTH 480 0
DWIDTH 7 0
BBX 7 13 0 -3
BITMAP
10
10
10
10
10
10
00
00
10
10
00
00
00
ENDCHAR
STARTCHAR char34
ENCODING 34
SWIDTH 480 0
DWIDTH 7 0
BBX 7 13 0 -3
BITMAP
28
28
28
00
00
00
00
00
00
00
00
00
00
ENDCHAR
STARTCHAR char35
ENCODING 35
SWIDTH 480 0
DWIDTH 7 0
BBX 7 13 0 -3
BITMAP
00
00
14
14
7E
28
28
FC
50
50
00
00
00
ENDCHAR
STARTCHAR char36
ENCODING 36
SWIDTH 480 0
DWIDTH 7 0
BBX 7 13 0 -3
BITMAP
00
10
3C
50
50
38
14
14
78
10
00
00
00
ENDCHAR
STARTCHAR char37
ENCODING 37
SWIDTH 480 0
DWIDTH 7 0
BBX 7 13 0 -3
BITMAP
00
40
A0
A4
48
10
20
48
94
14
08
00
00
ENDCHAR
STARTCHAR char38
ENCODING 38
SWIDTH 480 0
DWIDTH 7 0
BBX 7 13 0 -3
BITMAP
00
10
28
28
10
34
48
48
48
34
00
00
00
ENDCHAR
STARTCHAR char39
ENCODING 39
SWIDTH 480 0
DWIDTH 7 0
BBX 7 13 0 -3
BITMAP
08
08
10
00
00
00
00
00
00
00
00
00
00
ENDCHAR
STARTCHAR char40
ENCODING 40
SWIDTH 480 0
DWIDTH 7 0
BBX 7 13 0 -3
BITMAP
04
08
08
10
10
10
10
10
08
08
04
00
00
ENDCHAR
STARTCHAR char41
ENCODING 41
SWIDTH 480 0
DWIDTH 7 0
BBX 7 13 0 -3
BITMAP
40
20
20
10
10
10
10
10
20
20
40
00
00
ENDCHAR
STARTCHAR char42
ENCODING 42
SWIDTH 480 0
DWIDTH 7 0
BBX 7 13 0 -3
BITMAP
10
54
38
54
10
00
00
00
00
00
00
00
00
ENDCHAR
STARTCHAR char43
ENCODING 43
SWIDTH 480 0
DWIDTH 7 0
BBX 7 13 0 -3
BITMAP
00
00
00
10
10
7C
10
10
00
00
00
00
00
ENDCHAR
STARTCHAR char44
ENCODING 44
SWIDTH 480 0
DWIDTH 7 0
BBX 7 13 0 -3
BITMAP
00
00
00
00
00
00
00
00
30
20
40
00
00
ENDCHAR
STARTCHAR char45
ENCODING 45
SWIDTH 480 0
DWIDTH 7 0
BBX 7 13 0 -3
BITMAP
00
00
00
00
00
7C
00
00
00
00
00
00
00
ENDCHAR
STARTCHAR char46
ENCODING 46
SWIDTH 480 0
DWIDTH 7 0
BBX 7 13 0 -3
BITMAP
00
00
00
00
00
00
00
00
30
30
00
00
00
ENDCHAR
STARTCHAR char47
ENCODING 47
SWIDTH 480 0
DWIDTH 7 0
BBX 7 13 0 -3
BITMAP
00
04
04
08
08
10
20
20
40
40
00
00
00
ENDCHAR
STARTCHAR char48
ENCODING 48
SWIDTH 480 0
DWIDTH 7 0
BBX 7 13 0 -3
BITMAP
00
38
44
44
4C
54
64
44
44
38
00
00
00
ENDCHAR
STARTCHAR char49
ENCODING 49
SWIDTH 480 0
DWIDTH 7 0
BBX 7 13 0 -3
BITMAP
00
10
30
50
10
10
10
10
10
7C
00
00
00
ENDCHAR
STARTCHAR char50
ENCODING 50
SWIDTH 480 0
DWIDTH 7 0
BBX 7 13 0 -3
BITMAP
00
38
44
04
04
08
10
20
40
7C
00
00
00
ENDCHAR
STARTCHAR char51
ENCODING 51
SWIDTH 480 0
DWIDTH 7 0
BBX 7 13 0 -3
BITMAP
00
38
44
04
04
38
04
04
44
38
00
00
00
ENDCHAR
STARTCHAR char52
ENCODING 52
SWIDTH 480 0
DWIDTH 7 0
BBX 7 13 0 -3
BITMAP
00
08
18
28
28
48
48
FC
08
08
00
00
00
ENDCHAR
STARTCHAR char53
ENCODING 53
SWIDTH 480 0
DWIDTH 7 0
BBX 7 13 0 -3
BITMAP
00
7C
40
40
40
78
04
04
44
38
00
00
00
ENDCHAR
STARTCHAR char54
ENCODING 54
SWIDTH 480 0
DWIDTH 7 0
BBX 7 13 0 -3
BITMAP
00
38
44
40
40
78
44
44
44
38
00
00
00
ENDCHAR
STARTCHAR char55
ENCODING 55
SWIDTH 480 0
DWIDTH 7 0
BBX 7 13 0 -3
BITMAP
00
7C
08
08
10
10
10
20
20
20
00
00
00
ENDCHAR
STARTCHAR char56
ENCODING 56
SWIDTH 480 0
DWIDTH 7 0
BBX 7 13 0 -3
BITMAP
00
38
44
44
44
38
44
44
44
38
00
00
00
ENDCHAR
STARTCHAR char57
ENCODING 57
SWIDTH 480 0
DWIDTH 7 0
BBX 7 13 0 -3
BITMAP
00
38
44
44
44
3C
04
04
44
38
00
00
00
ENDCHAR
STARTCHAR char58
ENCODING 58
SWIDTH 480 0
DWIDTH 7 0
BBX 7 13 0 -3
BITMAP
00
00
00
30
30
00
00
30
30
00
00
00
00
ENDCHAR
STARTCHAR char59
ENCODING 59
SWIDTH 480 0
DWIDTH 7 0
BBX 7 13 0 -3
BITMAP
00
00
00
30
30
00
00
00
30
20
40
00
00
ENDCHAR
STARTCHAR char60
ENCODING 60
SWIDTH 480 0
DWIDTH 7 0
BBX 7 13 0 -3
BITMAP
00
04
08
10
20
40
20
10
08
04
00
00
00
ENDCHAR
STARTCHAR char61
ENCODING 61
SWIDTH 480 0
DWIDTH 7 0
BBX 7 13 0 -3
BITMAP
00
00
00
00
7C
00
00
7C
00
00
00
00
00
ENDCHAR
STARTCHAR char62
ENCODING 62
SWIDTH 480 0
DWIDTH 7 0
BBX 7 13 0 -3
BITMAP
00
40
20
10
08
04
08
10
20
40
00
00
00
ENDCHAR
STARTCHAR char63
ENCODING 63
SWIDTH 480 0
DWIDTH 7 0
BBX 7 13 0 -3
BITMAP
00
78
04
04
04
38
20
00
20
20
00
00
00
ENDCHAR
STARTCHAR char64
ENCODING 64
SWIDTH 480 0
DWIDTH 7 0
BBX 7 13 0 -3
BITMAP
00
18
24
4C
54
54
54
4C
20
18
00
00
00
ENDCHAR
STARTCHAR char65
ENCODING 65
SWIDTH 480 0
DWIDTH 7 0
BBX 7 13 0 -3
BITMAP
00
10
28
28
28
44
44
7C
44
44
00
00
00
ENDCHAR
STARTCHAR char66
ENCODING 66
SWIDTH 480 0
DWIDTH 7 0
BBX 7 13 0 -3
BITMAP
00
78
44
44
44
78
44
44
44
78
00
00
00
ENDCHAR
STARTCHAR char67
ENCODING 67
SWIDTH 480 0
DWIDTH 7 0
BBX 7 13 0 -3
BITMAP
00
38
44
40
40
40
40
40
44
38
00
00
00
ENDCHAR
STARTCHAR char68
ENCODING 68
SWIDTH 480 0
DWIDTH 7 0
BBX 7 13 0 -3
BITMAP
00
70
48
44
44
44
44
44
48
70
00
00
00
ENDCHAR
STARTCHAR char69
ENCODING 69
SWIDTH 480 0
DWIDTH 7 0
BBX 7 13 0 -3
BITMAP
00
7C
40
40
40
78
40
40
40
7C
00
00
00
ENDCHAR
STARTCHAR char70
ENCODING 70
SWIDTH 480 0
DWIDTH 7 0
BBX 7 13 0 -3
BITMAP
00
7C
40
40
40
78
40
40
40
40
00
00
00
ENDCHAR
STARTCHAR char71
ENCODING 71
SWIDTH 480 0
DWIDTH 7 0
BBX 7 13 0 -3
BITMAP
00
38
44
40
40
4C
44
44
44
3C
00
00
00
ENDCHAR
STARTCHAR char72
ENCODING 72
SWIDTH 480 0
DWIDTH 7 0
BBX 7 13 0 -3
BITMAP
00
44
44
44
44
7C
44
44
44
44
00
00
00
ENDCHAR
STARTCHAR char73
ENCODING 73
SWIDTH 480 0
DWIDTH 7 0
BBX 7 13 0 -3
BITMAP
00
38
10
10
10
10
10
10
10
38
00
00
00
ENDCHAR
STARTCHAR char74
ENCODING 74
SWIDTH 480 0
DWIDTH 7 0
BBX 7 13 0 -3
BITMAP
00
38
10
10
10
10
10
10
10
10
10
60
00
ENDCHAR
STARTCHAR char75
ENCODING 75
SWIDTH 480 0
DWIDTH 7 0
BBX 7 13 0 -3
BITMAP
00
44
44
48
48
70
48
48
44
44
00
00
00
ENDCHAR
STARTCHAR char76
ENCODING 76
SWIDTH 480 0
DWIDTH 7 0
BBX 7 13 0 -3
BITMAP
00
40
40
40
40
40
40
40
40
7C
00
00
00
ENDCHAR
STARTCHAR char77
ENCODING 77
SWIDTH 480 0
DWIDTH 7 0
BBX 7 13 0 -3
BITMAP
00
44
44
6C
6C
54
54
44
44
44
00
00
00
ENDCHAR
STARTCHAR char78
ENCODING 78
SWIDTH 480 0
DWIDTH 7 0
BBX 7 13 0 -3
BITMAP
00
44
64
64
54
4C
4C
44
44
44
00
00
00
ENDCHAR
STARTCHAR char79
ENCODING 79
SWIDTH 480 0
DWIDTH 7 0
BBX 7 13 0 -3
BITMAP
00
38
44
44
44
44
44
44
44
38
00
00
00
ENDCHAR
STARTCHAR char80
ENCODING 80
SWIDTH 480 0
DWIDTH 7 0
BBX 7 13 0 -3
BITMAP
00
78
44
44
44
44
78
40
40
40
00
00
00
ENDCHAR
STARTCHAR char81
ENCODING 81
SWIDTH 480 0
DWIDTH 7 0
BBX 7 13 0 -3
BITMAP
00
38
44
44
44
44
44
44
54
38
0C
00
00
ENDCHAR
STARTCHAR char82
ENCODING 82
SWIDTH 480 0
DWIDTH 7 0
BBX 7 13 0 -3
BITMAP
00
78
44
44
44
78
48
48
44
44
00
00
00
ENDCHAR
STARTCHAR char83
ENCODING 83
SWIDTH 480 0
DWIDTH 7 0
BBX 7 13 0 -3
BITMAP
00
3C
40
40
40
38
04
04
04
78
00
00
00
ENDCHAR
STARTCHAR char84
ENCODING 84
SWIDTH 480 0
DWIDTH 7 0
BBX 7 13 0 -3
BITMAP
00
7C
10
10
10
10
10
10
10
10
00
00
00
ENDCHAR
STARTCHAR char85
ENCODING 85
SWIDTH 480 0
DWIDTH 7 0
BBX 7 13 0 -3
BITMAP
00
44
44
44
44
44
44
44
44
38
00
00
00
ENDCHAR
STARTCHAR char86
ENCODING 86
SWIDTH 480 0
DWIDTH 7 0
BBX 7 13 0 -3
BITMAP
00
44
44
44
44
28
28
28
10
10
00
00
00
ENDCHAR
STARTCHAR char87
ENCODING 87
SWIDTH 480 0
DWIDTH 7 0
BBX 7 13 0 -3
BITMAP
00
44
44
54
54
54
54
28
28
28
00
00
00
ENDCHAR
STARTCHAR char88
ENCODING 88
SWIDTH 480 0
DWIDTH 7 0
BBX 7 13 0 -3
BITMAP
00
44
44
28
28
10
28
28
44
44
00
00
00
ENDCHAR
STARTCHAR char89
ENCODING 89
SWIDTH 480 0
DWIDTH 7 0
BBX 7 13 0 -3
BITMAP
00
44
44
44
28
28
10
10
10
10
00
00
00
ENDCHAR
STARTCHAR char90
ENCODING 90
SWIDTH 480 0
DWIDTH 7 0
BBX 7 13 0 -3
BITMAP
00
7C
04
08
08
10
20
20
40
7C
00
00
00
ENDCHAR
STARTCHAR char91
ENCODING 91
SWIDTH 480 0
DWIDTH 7 0
BBX 7 13 0 -3
BITMAP
1C
10
10
10
10
10
10
10
10
10
1C
00
00
ENDCHAR
STARTCHAR char92
ENCODING 92
SWIDTH 480 0
DWIDTH 7 0
BBX 7 13 0 -3
BITMAP
00
40
40
20
20
10
08
08
04
04
00
00
00
ENDCHAR
STARTCHAR char93
ENCODING 93
SWIDTH 480 0
DWIDTH 7 0
BBX 7 13 0 -3
BITMAP
70
10
10
10
10
10
10
10
10
10
70
00
00
ENDCHAR
STARTCHAR char94
ENCODING 94
SWIDTH 480 0
DWIDTH 7 0
BBX 7 13 0 -3
BITMAP
10
28
44
00
00
00
00
00
00
00
00
00
00
ENDCHAR
STARTCHAR char95
ENCODING 95
SWIDTH 480 0
DWIDTH 7 0
BBX 7 13 0 -3
BITMAP
00
00
00
00
00
00
00
00
00
00
7C
00
00
ENDCHAR
STARTCHAR char96
ENCODING 96
SWIDTH 480 0
DWIDTH 7 0
BBX 7 13 0 -3
BITMAP
20
20
10
00
00
00
00
00
00
00
00
00
00
ENDCHAR
STARTCHAR char97
ENCODING 97
SWIDTH 480 0
DWIDTH 7 0
BBX 7 13 0 -3
BITMAP
00
00
00
38
44
04
3C
44
44
3A
00
00
00
ENDCHAR
STARTCHAR char98
ENCODING 98
SWIDTH 480 0
DWIDTH 7 0
BBX 7 13 0 -3
BITMAP
40
40
40
58
64
44
44
44
64
58
00
00
00
ENDCHAR
STARTCHAR char99
ENCODING 99
SWIDTH 480 0
DWIDTH 7 0
BBX 7 13 0 -3
BITMAP
00
00
00
38
44
40
40
40
44
38
00
00
00
ENDCHAR
STARTCHAR char100
ENCODING 100
SWIDTH 480 0
DWIDTH 7 0
BBX 7 13 0 -3
BITMAP
04
04
04
3C
44
44
44
44
4C
34
00
00
00
ENDCHAR
STARTCHAR char101
ENCODING 101
SWIDTH 480 0
DWIDTH 7 0
BBX 7 13 0 -3
BITMAP
00
00
00
38
44
44
7C
40
44
38
00
00
00
ENDCHAR
STARTCHAR char102
ENCODING 102
SWIDTH 480 0
DWIDTH 7 0
BBX 7 13 0 -3
BITMAP
0E
10
10
3C
10
10
10
10
10
10
10
10
10
ENDCHAR
STARTCHAR char103
ENCODING 103
SWIDTH 480 0
DWIDTH 7 0
BBX 7 13 0 -3
BITMAP
00
00
00
3A
44
44
44
38
20
38
44
44
38
ENDCHAR
STARTCHAR char104
ENCODING 104
SWIDTH 480 0
DWIDTH 7 0
BBX 7 13 0 -3
BITMAP
40
40
40
58
64
44
44
44
44
44
00
00
00
ENDCHAR
STARTCHAR char105
ENCODING 105
SWIDTH 480 0
DWIDTH 7 0
BBX 7 13 0 -3
BITMAP
10
10
00
30
10
10
10
10
10
38
00
00
00
ENDCHAR
STARTCHAR char106
ENCODING 106
SWIDTH 480 0
DWIDTH 7 0
BBX 7 13 0 -3
BITMAP
10
10
00
30
10
10
10
10
10
10
10
10
60
ENDCHAR
STARTCHAR char107
ENCODING 107
SWIDTH 480 0
DWIDTH 7 0
BBX 7 13 0 -3
BITMAP
40
40
40
44
48
50
70
48
44
44
00
00
00
ENDCHAR
STARTCHAR char108
ENCODING 108
SWIDTH 480 0
DWIDTH 7 0
BBX 7 13 0 -3
BITMAP
30
10
10
10
10
10
10
10
10
0C
00
00
00
ENDCHAR
STARTCHAR char109
ENCODING 109
SWIDTH 480 0
DWIDTH 7 0
BBX 7 13 0 -3
BITMAP
00
00
00
68
54
54
54
54
54
54
00
00
00
ENDCHAR
STARTCHAR char110
ENCODING 110
SWIDTH 480 0
DWIDTH 7 0
BBX 7 13 0 -3
BITMAP
00
00
00
58
64
44
44
44
44
44
00
00
00
ENDCHAR
STARTCHAR char111
ENCODING 111
SWIDTH 480 0
DWIDTH 7 0
BBX 7 13 0 -3
BITMAP
00
00
00
38
44
44
44
44
44
38
00
00
00
ENDCHAR
STARTCHAR char112
ENCODING 112
SWIDTH 480 0
DWIDTH 7 0
BBX 7 13 0 -3
BITMAP
00
00
00
58
64
44
44
44
64
58
40
40
40
ENDCHAR
STARTCHAR char113
ENCODING 113
SWIDTH 480 0
DWIDTH 7 0
BBX 7 13 0 -3
BITMAP
00
00
00
34
4C
44
44
44
4C
34
04
04
04
ENDCHAR
STARTCHAR char114
ENCODING 114
SWIDTH 480 0
DWIDTH 7 0
BBX 7 13 0 -3
BITMAP
00
00
00
6C
30
20
20
20
20
20
00
00
00
ENDCHAR
STARTCHAR char115
ENCODING 115
SWIDTH 480 0
DWIDTH 7 0
BBX 7 13 0 -3
BITMAP
00
00
00
3C
40
40
38
04
04
78
00
00
00
ENDCHAR
STARTCHAR char116
ENCODING 116
SWIDTH 480 0
DWIDTH 7 0
BBX 7 13 0 -3
BITMAP
00
10
10
3C
10
10
10
10
10
0C
00
00
00
ENDCHAR
STARTCHAR char117
ENCODING 117
SWIDTH 480 0
DWIDTH 7 0
BBX 7 13 0 -3
BITMAP
00
00
00
44
44
44
44
44
4C
34
00
00
00
ENDCHAR
STARTCHAR char118
ENCODING 118
SWIDTH 480 0
DWIDTH 7 0
BBX 7 13 0 -3
BITMAP
00
00
00
44
44
44
28
28
10
10
00
00
00
ENDCHAR
STARTCHAR char119
ENCODING 119
SWIDTH 480 0
DWIDTH 7 0
BBX 7 13 0 -3
BITMAP
00
00
00
44
54
54
54
28
28
28
00
00
00
ENDCHAR
STARTCHAR char120
ENCODING 120
SWIDTH 480 0
DWIDTH 7 0
BBX 7 13 0 -3
BITMAP
00
00
00
44
44
28
10
28
44
44
00
00
00
ENDCHAR
STARTCHAR char121
ENCODING 121
SWIDTH 480 0
DWIDTH 7 0
BBX 7 13 0 -3
BITMAP
00
00
00
44
44
44
44
28
28
10
10
10
60
ENDCHAR
STARTCHAR char122
ENCODING 122
SWIDTH 480 0
DWIDTH 7 0
BBX 7 13 0 -3
BITMAP
00
00
00
7C
08
08
10
20
20
7C
00
00
00
ENDCHAR
STARTCHAR char123
ENCODING 123
SWIDTH 480 0
DWIDTH 7 0
BBX 7 13 0 -3
BITMAP
0C
10
10
10
10
60
10
10
10
10
0C
00
00
ENDCHAR
STARTCHAR char124
ENCODING 124
SWIDTH 480 0
DWIDTH 7 0
BBX 7 13 0 -3
BITMAP
10
10
10
10
10
10
10
10
10
10
00
00
00
ENDCHAR
STARTCHAR char125
ENCODING 125
SWIDTH 480 0
DWIDTH 7 0
BBX 7 13 0 -3
BITMAP
60
10
10
10
10
0C
10
10
10
10
60
00
00
ENDCHAR
STARTCHAR char126
ENCODING 126
SWIDTH 480 0
DWIDTH 7 0
BBX 7 13 0 -3
BITMAP
24
54
48
00
00
00
00
00
00
00
00
00
00
ENDCHAR
STARTCHAR char160
ENCODING 160
SWIDTH 480 0
DWIDTH 7 0
BBX 7 13 0 -3
BITMAP
00
00
00
00
00
00
00
00
00
00
00
00
00
ENDCHAR
STARTCHAR char161
ENCODING 161
SWIDTH 480 0
DWIDTH 7 0
BBX 7 13 0 -3
BITMAP
00
10
10
00
00
10
10
10
10
10
00
00
00
ENDCHAR
STARTCHAR char162
ENCODING 162
SWIDTH 480 0
DWIDTH 7 0
BBX 7 13 0 -3
BITMAP
00
00
00
10
3C
50
50
50
3C
10
00
00
00
ENDCHAR
STARTCHAR char163
ENCODING 163
SWIDTH 480 0
DWIDTH 7 0
BBX 7 13 0 -3
BITMAP
00
00
1C
20
20
20
78
20
20
7C
00
00
00
ENDCHAR
STARTCHAR char164
ENCODING 164
SWIDTH 480 0
DWIDTH 7 0
BBX 7 13 0 -3
BITMAP
00
00
00
00
84
78
48
48
78
84
00
00
00
ENDCHAR
STARTCHAR char165
ENCODING 165
SWIDTH 480 0
DWIDTH 7 0
BBX 7 13 0 -3
BITMAP
00
44
44
44
28
7C
10
7C
10
10
00
00
00
ENDCHAR
STARTCHAR char166
ENCODING 166
SWIDTH 480 0
DWIDTH 7 0
BBX 7 13 0 -3
BITMAP
00
10
10
10
10
00
10
10
10
10
00
00
00
ENDCHAR
STARTCHAR char167
ENCODING 167
SWIDTH 480 0
DWIDTH 7 0
BBX 7 13 0 -3
BITMAP
00
30
48
40
30
48
48
30
08
48
30
00
00
ENDCHAR
STARTCHAR char168
ENCODING 168
SWIDTH 480 0
DWIDTH 7 0
BBX 7 13 0 -3
BITMAP
00
00
24
24
00
00
00
00
00
00
00
00
00
ENDCHAR
STARTCHAR char169
ENCODING 169
SWIDTH 480 0
DWIDTH 7 0
BBX 7 13 0 -3
BITMAP
00
00
48
84
B4
A4
A4
B4
84
48
00
00
00
ENDCHAR
STARTCHAR char170
ENCODING 170
SWIDTH 480 0
DWIDTH 7 0
BBX 7 13 0 -3
BITMAP
00
30
08
38
48
38
00
00
00
00
00
00
00
ENDCHAR
STARTCHAR char171
ENCODING 171
SWIDTH 480 0
DWIDTH 7 0
BBX 7 13 0 -3
BITMAP
00
00
00
24
48
90
48
24
00
00
00
00
00
ENDCHAR
STARTCHAR char172
ENCODING 172
SWIDTH 480 0
DWIDTH 7 0
BBX 7 13 0 -3
BITMAP
00
00
00
00
00
00
7C
04
04
00
00
00
00
ENDCHAR
STARTCHAR char173
ENCODING 173
SWIDTH 480 0
DWIDTH 7 0
BBX 7 13 0 -3
BITMAP
00
00
00
00
00
00
38
00
00
00
00
00
00
ENDCHAR
STARTCHAR char174
ENCODING 174
SWIDTH 480 0
DWIDTH 7 0
BBX 7 13 0 -3
BITMAP
00
30
28
28
30
28
00
00
00
00
00
00
00
ENDCHAR
STARTCHAR char175
ENCODING 175
SWIDTH 480 0
DWIDTH 7 0
BBX 7 13 0 -3
BITMAP
00
78
00
00
00
00
00
00
00
00
00
00
00
ENDCHAR
STARTCHAR char176
ENCODING 176
SWIDTH 480 0
DWIDTH 7 0
BBX 7 13 0 -3
BITMAP
30
48
48
30
00
00
00
00
00
00
00
00
00
ENDCHAR
STARTCHAR char177
ENCODING 177
SWIDTH 480 0
DWIDTH 7 0
BBX 7 13 0 -3
BITMAP
00
00
00
10
10
7C
10
10
00
7C
00
00
00
ENDCHAR
STARTCHAR char178
ENCODING 178
SWIDTH 480 0
DWIDTH 7 0
BBX 7 13 0 -3
BITMAP
00
30
48
08
30
40
78
00
00
00
00
00
00
ENDCHAR
STARTCHAR char179
ENCODING 179
SWIDTH 480 0
DWIDTH 7 0
BBX 7 13 0 -3
BITMAP
00
78
10
30
08
08
70
00
00
00
00
00
00
ENDCHAR
STARTCHAR char180
ENCODING 180
SWIDTH 480 0
DWIDTH 7 0
BBX 7 13 0 -3
BITMAP
00
10
20
00
00
00
00
00
00
00
00
00
00
ENDCHAR
STARTCHAR char181
ENCODING 181
SWIDTH 480 0
DWIDTH 7 0
BBX 7 13 0 -3
BITMAP
00
00
00
44
44
44
44
44
6C
54
40
40
40
ENDCHAR
STARTCHAR char182
ENCODING 182
SWIDTH 480 0
DWIDTH 7 0
BBX 7 13 0 -3
BITMAP
00
3C
74
74
74
34
14
14
14
14
00
00
00
ENDCHAR
STARTCHAR char183
ENCODING 183
SWIDTH 480 0
DWIDTH 7 0
BBX 7 13 0 -3
BITMAP
00
00
00
00
00
30
30
00
00
00
00
00
00
ENDCHAR
STARTCHAR char184
ENCODING 184
SWIDTH 480 0
DWIDTH 7 0
BBX 7 13 0 -3
BITMAP
00
00
00
00
00
00
00
00
00
00
10
60
00
ENDCHAR
STARTCHAR char185
ENCODING 185
SWIDTH 480 0
DWIDTH 7 0
BBX 7 13 0 -3
BITMAP
00
10
30
50
10
10
10
00
00
00
00
00
00
ENDCHAR
STARTCHAR char186
ENCODING 186
SWIDTH 480 0
DWIDTH 7 0
BBX 7 13 0 -3
BITMAP
00
30
48
48
48
48
30
00
00
00
00
00
00
ENDCHAR
STARTCHAR char187
ENCODING 187
SWIDTH 480 0
DWIDTH 7 0
BBX 7 13 0 -3
BITMAP
00
00
00
90
48
24
48
90
00
00
00
00
00
ENDCHAR
STARTCHAR char188
ENCODING 188
SWIDTH 480 0
DWIDTH 7 0
BBX 7 13 0 -3
BITMAP
00
20
60
20
2C
30
C8
18
28
3C
08
00
00
ENDCHAR
STARTCHAR char189
ENCODING 189
SWIDTH 480 0
DWIDTH 7 0
BBX 7 13 0 -3
BITMAP
00
20
60
20
2C
30
D8
04
18
20
3C
00
00
ENDCHAR
STARTCHAR char190
ENCODING 190
SWIDTH 480 0
DWIDTH 7 0
BBX 7 13 0 -3
BITMAP
F0
20
70
10
EC
30
C8
18
28
3C
08
00
00
ENDCHAR
STARTCHAR char191
ENCODING 191
SWIDTH 480 0
DWIDTH 7 0
BBX 7 13 0 -3
BITMAP
00
08
08
00
08
38
40
40
40
3C
00
00
00
ENDCHAR
STARTCHAR char192
ENCODING 192
SWIDTH 480 0
DWIDTH 7 0
BBX 7 13 0 -3
BITMAP
20
10
00
10
28
28
44
7C
44
44
00
00
00
ENDCHAR
STARTCHAR char193
ENCODING 193
SWIDTH 480 0
DWIDTH 7 0
BBX 7 13 0 -3
BITMAP
08
10
00
10
28
28
44
7C
44
44
00
00
00
ENDCHAR
STARTCHAR char194
ENCODING 194
SWIDTH 480 0
DWIDTH 7 0
BBX 7 13 0 -3
BITMAP
10
28
00
10
28
28
44
7C
44
44
00
00
00
ENDCHAR
STARTCHAR char195
ENCODING 195
SWIDTH 480 0
DWIDTH 7 0
BBX 7 13 0 -3
BITMAP
34
58
00
10
28
28
44
7C
44
44
00
00
00
ENDCHAR
STARTCHAR char196
ENCODING 196
SWIDTH 480 0
DWIDTH 7 0
BBX 7 13 0 -3
BITMAP
28
28
00
10
28
28
44
7C
44
44
00
00
00
ENDCHAR
STARTCHAR char197
ENCODING 197
SWIDTH 480 0
DWIDTH 7 0
BBX 7 13 0 -3
BITMAP
10
28
10
10
28
28
44
7C
44
44
00
00
00
ENDCHAR
STARTCHAR char198
ENCODING 198
SWIDTH 480 0
DWIDTH 7 0
BBX 7 13 0 -3
BITMAP
00
1C
30
50
50
5C
50
70
50
5C
00
00
00
ENDCHAR
STARTCHAR char199
ENCODING 199
SWIDTH 480 0
DWIDTH 7 0
BBX 7 13 0 -3
BITMAP
00
38
44
40
40
40
40
40
44
38
10
10
20
ENDCHAR
STARTCHAR char200
ENCODING 200
SWIDTH 480 0
DWIDTH 7 0
BBX 7 13 0 -3
BITMAP
20
10
00
7C
40
40
78
40
40
7C
00
00
00
ENDCHAR
STARTCHAR char201
ENCODING 201
SWIDTH 480 0
DWIDTH 7 0
BBX 7 13 0 -3
BITMAP
08
10
00
7C
40
40
78
40
40
7C
00
00
00
ENDCHAR
STARTCHAR char202
ENCODING 202
SWIDTH 480 0
DWIDTH 7 0
BBX 7 13 0 -3
BITMAP
10
28
00
7C
40
40
78
40
40
7C
00
00
00
ENDCHAR
STARTCHAR char203
ENCODING 203
SWIDTH 480 0
DWIDTH 7 0
BBX 7 13 0 -3
BITMAP
28
28
00
7C
40
40
78
40
40
7C
00
00
00
ENDCHAR
STARTCHAR char204
ENCODING 204
SWIDTH 480 0
DWIDTH 7 0
BBX 7 13 0 -3
BITMAP
20
10
00
38
10
10
10
10
10
38
00
00
00
ENDCHAR
STARTCHAR char205
ENCODING 205
SWIDTH 480 0
DWIDTH 7 0
BBX 7 13 0 -3
BITMAP
08
10
00
38
10
10
10
10
10
38
00
00
00
ENDCHAR
STARTCHAR 206
ENCODING 206
SWIDTH 480 0
DWIDTH 7 0
BBX 7 13 0 -3
BITMAP
10
28
00
38
10
10
10
10
10
38
00
00
00
ENDCHAR
STARTCHAR char207
ENCODING 207
SWIDTH 480 0
DWIDTH 7 0
BBX 7 13 0 -3
BITMAP
28
28
00
38
10
10
10
10
10
38
00
00
00
ENDCHAR
STARTCHAR char208
ENCODING 208
SWIDTH 480 0
DWIDTH 7 0
BBX 7 13 0 -3
BITMAP
00
30
28
24
24
74
24
24
28
30
00
00
00
ENDCHAR
STARTCHAR char209
ENCODING 209
SWIDTH 480 0
DWIDTH 7 0
BBX 7 13 0 -3
BITMAP
34
58
00
44
64
54
4C
44
44
44
00
00
00
ENDCHAR
STARTCHAR char210
ENCODING 210
SWIDTH 480 0
DWIDTH 7 0
BBX 7 13 0 -3
BITMAP
20
10
38
44
44
44
44
44
44
38
00
00
00
ENDCHAR
STARTCHAR char211
ENCODING 211
SWIDTH 480 0
DWIDTH 7 0
BBX 7 13 0 -3
BITMAP
08
10
38
44
44
44
44
44
44
38
00
00
00
ENDCHAR
STARTCHAR char212
ENCODING 212
SWIDTH 480 0
DWIDTH 7 0
BBX 7 13 0 -3
BITMAP
10
28
38
44
44
44
44
44
44
38
00
00
00
ENDCHAR
STARTCHAR char213
ENCODING 213
SWIDTH 480 0
DWIDTH 7 0
BBX 7 13 0 -3
BITMAP
34
58
38
44
44
44
44
44
44
38
00
00
00
ENDCHAR
STARTCHAR char214
ENCODING 214
SWIDTH 480 0
DWIDTH 7 0
BBX 7 13 0 -3
BITMAP
28
28
38
44
44
44
44
44
44
38
00
00
00
ENDCHAR
STARTCHAR char215
ENCODING 215
SWIDTH 480 0
DWIDTH 7 0
BBX 7 13 0 -3
BITMAP
00
00
00
00
44
28
10
28
44
00
00
00
00
ENDCHAR
STARTCHAR char216
ENCODING 216
SWIDTH 480 0
DWIDTH 7 0
BBX 7 13 0 -3
BITMAP
00
3C
44
4C
4C
54
64
64
44
78
00
00
00
ENDCHAR
STARTCHAR char217
ENCODING 217
SWIDTH 480 0
DWIDTH 7 0
BBX 7 13 0 -3
BITMAP
20
10
00
44
44
44
44
44
44
38
00
00
00
ENDCHAR
STARTCHAR char218
ENCODING 218
SWIDTH 480 0
DWIDTH 7 0
BBX 7 13 0 -3
BITMAP
08
10
00
44
44
44
44
44
44
38
00
00
00
ENDCHAR
STARTCHAR char219
ENCODING 219
SWIDTH 480 0
DWIDTH 7 0
BBX 7 13 0 -3
BITMAP
10
28
00
44
44
44
44
44
44
38
00
00
00
ENDCHAR
STARTCHAR char220
ENCODING 220
SWIDTH 480 0
DWIDTH 7 0
BBX 7 13 0 -3
BITMAP
28
28
00
44
44
44
44
44
44
38
00
00
00
ENDCHAR
STARTCHAR char221
ENCODING 221
SWIDTH 480 0
DWIDTH 7 0
BBX 7 13 0 -3
BITMAP
08
10
00
44
44
28
10
10
10
10
00
00
00
ENDCHAR
STARTCHAR char222
ENCODING 222
SWIDTH 480 0
DWIDTH 7 0
BBX 7 13 0 -3
BITMAP
00
40
40
78
44
44
44
78
40
40
00
00
00
ENDCHAR
STARTCHAR char223
ENCODING 223
SWIDTH 480 0
DWIDTH 7 0
BBX 7 13 0 -3
BITMAP
00
30
48
48
50
50
48
44
44
58
00
00
00
ENDCHAR
STARTCHAR char224
ENCODING 224
SWIDTH 480 0
DWIDTH 7 0
BBX 7 13 0 -3
BITMAP
10
08
00
38
44
04
3C
44
44
3A
00
00
00
ENDCHAR
STARTCHAR char225
ENCODING 225
SWIDTH 480 0
DWIDTH 7 0
BBX 7 13 0 -3
BITMAP
08
10
00
38
44
04
3C
44
44
3A
00
00
00
ENDCHAR
STARTCHAR char226
ENCODING 226
SWIDTH 480 0
DWIDTH 7 0
BBX 7 13 0 -3
BITMAP
10
28
00
38
44
04
3C
44
44
3A
00
00
00
ENDCHAR
STARTCHAR char227
ENCODING 227
SWIDTH 480 0
DWIDTH 7 0
BBX 7 13 0 -3
BITMAP
34
58
00
38
44
04
3C
44
44
3A
00
00
00
ENDCHAR
STARTCHAR char228
ENCODING 228
SWIDTH 480 0
DWIDTH 7 0
BBX 7 13 0 -3
BITMAP
28
28
00
38
44
04
3C
44
44
3A
00
00
00
ENDCHAR
STARTCHAR char229
ENCODING 229
SWIDTH 480 0
DWIDTH 7 0
BBX 7 13 0 -3
BITMAP
10
28
10
00
38
44
3C
44
44
3A
00
00
00
ENDCHAR
STARTCHAR char230
ENCODING 230
SWIDTH 480 0
DWIDTH 7 0
BBX 7 13 0 -3
BITMAP
00
00
00
28
54
14
3C
50
54
68
00
00
00
ENDCHAR
STARTCHAR char231
ENCODING 231
SWIDTH 480 0
DWIDTH 7 0
BBX 7 13 0 -3
BITMAP
00
00
00
38
44
40
40
40
44
38
10
10
20
ENDCHAR
STARTCHAR char232
ENCODING 232
SWIDTH 480 0
DWIDTH 7 0
BBX 7 13 0 -3
BITMAP
20
10
00
38
44
44
7C
40
44
38
00
00
00
ENDCHAR
STARTCHAR char233
ENCODING 233
SWIDTH 480 0
DWIDTH 7 0
BBX 7 13 0 -3
BITMAP
08
10
00
38
44
44
7C
40
44
38
00
00
00
ENDCHAR
STARTCHAR char234
ENCODING 234
SWIDTH 480 0
DWIDTH 7 0
BBX 7 13 0 -3
BITMAP
10
28
00
38
44
44
7C
40
44
38
00
00
00
ENDCHAR
STARTCHAR char235
ENCODING 235
SWIDTH 480 0
DWIDTH 7 0
BBX 7 13 0 -3
BITMAP
28
28
00
38
44
44
7C
40
44
38
00
00
00
ENDCHAR
STARTCHAR char236
ENCODING 236
SWIDTH 480 0
DWIDTH 7 0
BBX 7 13 0 -3
BITMAP
20
10
00
30
10
10
10
10
10
38
00
00
00
ENDCHAR
STARTCHAR char237
ENCODING 237
SWIDTH 480 0
DWIDTH 7 0
BBX 7 13 0 -3
BITMAP
08
10
00
30
10
10
10
10
10
38
00
00
00
ENDCHAR
STARTCHAR char238
ENCODING 238
SWIDTH 480 0
DWIDTH 7 0
BBX 7 13 0 -3
BITMAP
10
28
00
30
10
10
10
10
10
38
00
00
00
ENDCHAR
STARTCHAR char239
ENCODING 239
SWIDTH 480 0
DWIDTH 7 0
BBX 7 13 0 -3
BITMAP
00
28
00
30
10
10
10
10
10
38
00
00
00
ENDCHAR
STARTCHAR char240
ENCODING 240
SWIDTH 480 0
DWIDTH 7 0
BBX 7 13 0 -3
BITMAP
28
30
48
18
24
44
44
44
48
30
00
00
00
ENDCHAR
STARTCHAR char241
ENCODING 241
SWIDTH 480 0
DWIDTH 7 0
BBX 7 13 0 -3
BITMAP
34
58
00
58
64
44
44
44
44
44
00
00
00
ENDCHAR
STARTCHAR char242
ENCODING 242
SWIDTH 480 0
DWIDTH 7 0
BBX 7 13 0 -3
BITMAP
20
10
00
38
44
44
44
44
44
38
00
00
00
ENDCHAR
STARTCHAR char243
ENCODING 243
SWIDTH 480 0
DWIDTH 7 0
BBX 7 13 0 -3
BITMAP
08
10
00
38
44
44
44
44
44
38
00
00
00
ENDCHAR
STARTCHAR char244
ENCODING 244
SWIDTH 480 0
DWIDTH 7 0
BBX 7 13 0 -3
BITMAP
10
28
00
38
44
44
44
44
44
38
00
00
00
ENDCHAR
STARTCHAR char245
ENCODING 245
SWIDTH 480 0
DWIDTH 7 0
BBX 7 13 0 -3
BITMAP
34
58
00
38
44
44
44
44
44
38
00
00
00
ENDCHAR
STARTCHAR char246
ENCODING 246
SWIDTH 480 0
DWIDTH 7 0
BBX 7 13 0 -3
BITMAP
28
28
00
38
44
44
44
44
44
38
00
00
00
ENDCHAR
STARTCHAR char247
ENCODING 247
SWIDTH 480 0
DWIDTH 7 0
BBX 7 13 0 -3
BITMAP
00
00
00
10
10
00
7C
00
10
10
00
00
00
ENDCHAR
STARTCHAR char248
ENCODING 248
SWIDTH 480 0
DWIDTH 7 0
BBX 7 13 0 -3
BITMAP
00
00
00
3C
44
4C
54
64
44
78
00
00
00
ENDCHAR
STARTCHAR char249
ENCODING 249
SWIDTH 480 0
DWIDTH 7 0
BBX 7 13 0 -3
BITMAP
20
10
00
44
44
44
44
44
4C
34
00
00
00
ENDCHAR
STARTCHAR char250
ENCODING 250
SWIDTH 480 0
DWIDTH 7 0
BBX 7 13 0 -3
BITMAP
08
10
00
44
44
44
44
44
4C
34
00
00
00
ENDCHAR
STARTCHAR char251
ENCODING 251
SWIDTH 480 0
DWIDTH 7 0
BBX 7 13 0 -3
BITMAP
10
28
00
44
44
44
44
44
4C
34
00
00
00
ENDCHAR
STARTCHAR char252
ENCODING 252
SWIDTH 480 0
DWIDTH 7 0
BBX 7 13 0 -3
BITMAP
28
28
00
44
44
44
44
44
4C
34
00
00
00
ENDCHAR
STARTCHAR char253
ENCODING 253
SWIDTH 480 0
DWIDTH 7 0
BBX 7 13 0 -3
BITMAP
08
10
00
44
44
44
44
28
28
10
10
10
60
ENDCHAR
STARTCHAR char254
ENCODING 254
SWIDTH 480 0
DWIDTH 7 0
BBX 7 13 0 -3
BITMAP
00
00
40
40
58
64
44
44
44
78
40
40
40
ENDCHAR
STARTCHAR char255
ENCODING 255
SWIDTH 480 0
DWIDTH 7 0
BBX 7 13 0 -3
BITMAP
28
28
00
44
44
44
44
28
28
10
10
10
60
ENDCHAR
ENDFONT
